<svg width="384" height="504" viewBox="0 0 384 504" fill="none" xmlns="http://www.w3.org/2000/svg">
<path d="M172.268 493.831C26.97 286.484 0 265.203 0 189C0 84.6179 85.961 0 192 0C298.039 0 384 84.6179 384 189C384 265.203 357.03 286.484 211.732 493.831C202.197 507.39 181.802 507.389 172.268 493.831ZM192 267.75C236.183 267.75 272 232.493 272 189C272 145.507 236.183 110.25 192 110.25C147.817 110.25 112 145.507 112 189C112 232.493 147.817 267.75 192 267.75Z" fill="#668DC8" style="mix-blend-mode:multiply"/>
<ellipse cx="193" cy="192.5" rx="85" ry="82.5" fill="#E38484"/>
</svg>
